<svg width="24" height="24" viewBox="0 0 24 24" fill="none" xmlns="http://www.w3.org/2000/svg">
<path fill-rule="evenodd" clip-rule="evenodd" d="M3 2.25C2.58579 2.25 2.25 2.58579 2.25 3C2.25 3.41421 2.58579 3.75 3 3.75H4.38515L4.66456 5.14709L6.18585 12.7535L4.17678 14.7626C3.27537 15.664 3.63299 17.0885 4.64564 17.5781C4.39453 17.993 4.25 18.4796 4.25 19C4.25 20.5188 5.48122 21.75 7 21.75C8.51878 21.75 9.75 20.5188 9.75 19C9.75 18.5499 9.64186 18.125 9.45015 17.75H14.5499C14.3581 18.125 14.25 18.5499 14.25 19C14.25 20.5188 15.4812 21.75 17 21.75C18.5188 21.75 19.75 20.5188 19.75 19C19.75 17.4812 18.5188 16.25 17 16.25H7H5.41421C5.19149 16.25 5.07995 15.9807 5.23744 15.8232L7.31066 13.75H17C17.2841 13.75 17.5438 13.5895 17.6708 13.3354L21.6641 5.34891C21.6931 5.29373 21.7155 5.23448 21.7301 5.17224C21.7765 4.97626 21.7409 4.77242 21.6382 4.6058C21.5829 4.51608 21.5081 4.43715 21.4163 4.37605C21.3431 4.32709 21.2607 4.29068 21.1724 4.2699C21.1102 4.25517 21.0472 4.24869 20.9849 4.25H6.01485L5.73544 2.85291C5.66532 2.50234 5.35751 2.25 5 2.25H3ZM6.31485 5.75L7.61485 12.25H16.5365L19.7865 5.75H6.31485ZM5.75 19C5.75 18.3096 6.30964 17.75 7 17.75C7.69036 17.75 8.25 18.3096 8.25 19C8.25 19.6904 7.69036 20.25 7 20.25C6.30964 20.25 5.75 19.6904 5.75 19ZM15.75 19C15.75 18.3096 16.3096 17.75 17 17.75C17.6904 17.75 18.25 18.3096 18.25 19C18.25 19.6904 17.6904 20.25 17 20.25C16.3096 20.25 15.75 19.6904 15.75 19Z" fill="#0B2341"/>
</svg>
