<svg width="115" height="30" viewBox="0 0 115 30" fill="none" xmlns="http://www.w3.org/2000/svg">
<path d="M91.4719 1.54447L99.2118 20.7076C99.5856 21.5937 99.6979 22.406 99.137 23.2554C98.5388 24.1415 97.604 24.6215 96.0336 24.6215H93.8276C93.4537 24.6215 93.3041 24.8061 93.3041 25.1384V28.683C93.3041 29.0152 93.4537 29.1999 93.8276 29.1999H95.8841C100.483 29.1999 103.437 27.243 105.194 23.0338L114.131 1.54461C114.243 1.28615 114.28 0.953876 113.757 0.953876H108.56C108.26 0.953876 108.036 1.10163 107.924 1.397L103.288 14.8739C103.063 15.5386 102.54 15.5386 102.315 14.8739L97.679 1.397C97.5669 1.10163 97.3425 0.953876 97.0434 0.953876H91.921C91.5096 0.953876 91.3227 1.21234 91.4722 1.54461L91.4719 1.54447ZM75.6558 8.92909C76.1419 6.56601 77.974 4.42448 80.5539 4.42448C83.1713 4.42448 84.9285 6.60291 85.3773 8.92909C85.4894 9.37222 85.2276 9.63068 84.779 9.63068H76.2914C75.8426 9.63068 75.5435 9.37222 75.6558 8.92909ZM69.3367 11.5875C69.3367 18.0861 74.1227 22.7752 80.7409 22.7752C85.3025 22.7752 89.7894 20.5599 90.9858 16.646C91.0979 16.3875 91.0606 16.0922 90.5371 16.0922H85.452C85.1155 16.0922 84.9285 16.2029 84.7789 16.5353C84.1058 17.8645 82.6103 18.7137 80.8902 18.7137C78.2729 18.7137 76.179 16.7568 75.6555 14.3938C75.5434 13.9506 75.8425 13.6922 76.2911 13.6922H90.7986C91.1724 13.6922 91.3594 13.5075 91.3594 13.1383V11.7353C91.3594 5.31073 86.8725 0.399902 80.4787 0.399902C74.0476 0.399902 69.3363 5.19988 69.3363 11.5875H69.3367ZM50.2676 21.6675C50.2676 22.0367 50.4173 22.2214 50.7911 22.2214H67.729C68.0654 22.2214 68.2524 22.0367 68.2524 21.6675V18.1599C68.2524 17.8276 68.0654 17.6429 67.729 17.6429H58.8301C58.2692 17.6429 58.0822 17.2738 58.4187 16.8306L67.6916 4.75676C67.8786 4.49829 67.9159 4.31363 67.9159 4.01827V1.50743C67.9159 1.13825 67.7663 0.953594 67.3925 0.953594H50.7911C50.4173 0.953594 50.2676 1.13825 50.2676 1.50743V5.05198C50.2676 5.38425 50.4173 5.56891 50.7911 5.56891H59.5032C60.064 5.56891 60.251 5.93809 59.9145 6.38121L50.4922 18.4182C50.3052 18.6398 50.2678 18.8613 50.2678 19.1567V21.6675H50.2676ZM31.4977 11.5875C31.4977 7.41521 33.8533 4.46139 37.2559 4.46139C40.7705 4.46139 43.1262 7.63677 43.1262 11.5875C43.1262 15.4645 40.9202 18.7137 37.2559 18.7137C33.7412 18.7137 31.4977 15.6121 31.4977 11.5875ZM25.5526 11.5875C25.5526 18.1968 30.4881 22.7752 37.2559 22.7752C44.0984 22.7752 49.0338 18.0859 49.0338 11.5875C49.0338 5.16298 44.0609 0.399902 37.2559 0.399902C30.6751 0.399902 25.5526 4.90451 25.5526 11.5875ZM0.800049 11.5875C0.800049 18.0861 5.73553 22.7752 12.3163 22.7752C17.5135 22.7752 22.2995 19.969 23.4587 14.9105C23.5708 14.5043 23.4213 14.3198 22.9726 14.3198H17.9249C17.6258 14.3198 17.4014 14.4676 17.3267 14.7998C16.6162 17.2367 14.8216 18.7137 12.4659 18.7137C8.98862 18.7137 6.78261 15.5752 6.78261 11.5875C6.78261 7.71058 8.95125 4.46139 12.3912 4.46139C14.7094 4.46139 16.5416 5.90132 17.2893 8.30145C17.4014 8.67063 17.6258 8.85529 17.9249 8.85529H23.01C23.3838 8.85529 23.5335 8.59682 23.4587 8.26455C22.337 3.27992 17.738 0.399902 12.4286 0.399902C5.77304 0.399902 0.800049 5.08917 0.800049 11.5875Z" fill="#0B2341"/>
</svg>
