<svg width="128" height="24" viewBox="0 0 128 24" fill="none" xmlns="http://www.w3.org/2000/svg">
<path d="M17.5 19.5L12.5 14.5M14.1667 10.3333C14.1667 13.555 11.555 16.1667 8.33333 16.1667C5.11167 16.1667 2.5 13.555 2.5 10.3333C2.5 7.11167 5.11167 4.5 8.33333 4.5C11.555 4.5 14.1667 7.11167 14.1667 10.3333Z" stroke="#0B2341" stroke-linecap="round" stroke-linejoin="round"/>
<path d="M46 7C46 9.20914 44.2091 11 42 11C39.7909 11 38 9.20914 38 7C38 4.79086 39.7909 3 42 3C44.2091 3 46 4.79086 46 7Z" stroke="#0B2341" stroke-linecap="round" stroke-linejoin="round"/>
<path d="M42 14C38.134 14 35 17.134 35 21H49C49 17.134 45.866 14 42 14Z" stroke="#0B2341" stroke-linecap="round" stroke-linejoin="round"/>
<path fill-rule="evenodd" clip-rule="evenodd" d="M66.5 4C66.2239 4 66 4.22386 66 4.5C66 4.77614 66.2239 5 66.5 5H67.7568L68.0097 6.26472L69.2906 12.669L67.569 14.3905C66.8444 15.1151 67.1876 16.2835 68.0582 16.5907C67.8115 16.9425 67.6667 17.371 67.6667 17.8333C67.6667 19.03 68.6367 20 69.8333 20C71.03 20 72 19.03 72 17.8333C72 17.4038 71.875 17.0034 71.6594 16.6667H76.3406C76.125 17.0034 76 17.4038 76 17.8333C76 19.03 76.97 20 78.1667 20C79.3633 20 80.3333 19.03 80.3333 17.8333C80.3333 16.6367 79.3633 15.6667 78.1667 15.6667H69.8333H68.5118C68.2149 15.6667 68.0662 15.3076 68.2761 15.0976L70.0404 13.3333H78.1667C78.3561 13.3333 78.5292 13.2263 78.6139 13.0569L81.9427 6.39928C81.9621 6.36251 81.977 6.32303 81.9867 6.28157C82.0177 6.15085 81.9939 6.01489 81.9254 5.90376C81.8883 5.84371 81.8382 5.79091 81.7767 5.75012C81.7281 5.71777 81.6735 5.6937 81.6149 5.67993C81.5735 5.67011 81.5315 5.6658 81.4899 5.66667H69C68.9698 5.66667 68.9402 5.66935 68.9115 5.67448L68.657 4.40194C68.6102 4.16823 68.405 4 68.1667 4H66.5ZM69.1099 6.66667L70.2432 12.3333H77.8576L80.691 6.66667H69.1099ZM68.6667 17.8333C68.6667 17.189 69.189 16.6667 69.8333 16.6667C70.4777 16.6667 71 17.189 71 17.8333C71 18.4777 70.4777 19 69.8333 19C69.189 19 68.6667 18.4777 68.6667 17.8333ZM77 17.8333C77 17.189 77.5223 16.6667 78.1667 16.6667C78.811 16.6667 79.3333 17.189 79.3333 17.8333C79.3333 18.4777 78.811 19 78.1667 19C77.5223 19 77 18.4777 77 17.8333Z" fill="#0B2341"/>
<line x1="96.5" y1="2" x2="96.5" y2="22" stroke="#D0CEC4"/>
<path d="M111.333 7H124.667M111.333 12H124.667M111.333 17H124.667" stroke="#0B2341" stroke-linecap="round" stroke-linejoin="round"/>
</svg>
